<svg xmlns="http://www.w3.org/2000/svg" width="48" height="48" viewBox="0 0 48 48" fill="none" stroke="currentColor" stroke-width="1.75" stroke-linecap="round" stroke-linejoin="round">
  <path d="M4 12H28C30.1217 12 32.1566 12.8429 33.6569 14.3431C35.1571 15.8434 36 17.8783 36 20C36 22.1217 35.1571 24.1566 33.6569 25.6569C32.1566 27.1571 30.1217 28 28 28H24"/>
  <path d="M4 24H20C22.1217 24 24.1566 24.8429 25.6569 26.3431C27.1571 27.8434 28 29.8783 28 32C28 34.1217 27.1571 36.1566 25.6569 37.6569C24.1566 39.1571 22.1217 40 20 40H12"/>
  <path d="M4 36H24C26.1217 36 28.1566 35.1571 29.6569 33.6569C31.1571 32.1566 32 30.1217 32 28C32 25.8783 31.1571 23.8434 29.6569 22.3431C28.1566 20.8429 26.1217 20 24 20H16"/>
  <path d="M38 12L42 16L38 20"/>
  <path d="M32 24L36 28L32 32"/>
  <path d="M20 36L24 40L20 44"/>
</svg>
