<svg xmlns="http://www.w3.org/2000/svg" width="48" height="48" viewBox="0 0 48 48" fill="none" stroke="currentColor" stroke-width="1.75" stroke-linecap="round" stroke-linejoin="round">
  <path d="M6 18L24 6L42 18V36C42 37.0609 41.5786 38.0783 40.8284 38.8284C40.0783 39.5786 39.0609 40 38 40H10C8.93913 40 7.92172 39.5786 7.17157 38.8284C6.42143 38.0783 6 37.0609 6 36V18Z"/>
  <path d="M24 28C26.7614 28 29 25.7614 29 23C29 20.2386 26.7614 18 24 18C21.2386 18 19 20.2386 19 23C19 25.7614 21.2386 28 24 28Z"/>
  <path d="M24 28V40"/>
</svg>
